<?xml version="1.0" standalone="no"?>
<!DOCTYPE svg PUBLIC "-//W3C//DTD SVG 20010904//EN"
 "http://www.w3.org/TR/2001/REC-SVG-20010904/DTD/svg10.dtd">
<svg version="1.0" xmlns="http://www.w3.org/2000/svg"
 width="50.000000pt" height="50.000000pt" viewBox="0 0 500.000000 500.000000"
 preserveAspectRatio="xMidYMid meet">

<g transform="translate(0.000000,500.000000) scale(0.100000,-0.100000)"
fill="#000000" stroke="none">
<path d="M2050 4439 c-13 -23 -12 -23 65 -122 41 -54 45 -63 45 -115 0 -111
-21 -300 -55 -507 -45 -273 -52 -296 -90 -307 -72 -19 -324 -41 -481 -42
l-171 -1 -86 44 c-62 32 -92 42 -110 37 -31 -7 -40 -40 -22 -82 16 -39 163
-195 213 -226 38 -24 40 -23 459 24 106 12 195 20 197 17 3 -3 -6 -99 -19
-214 -26 -233 -45 -479 -45 -585 l0 -70 -72 -36 c-139 -70 -376 -222 -503
-322 -118 -93 -344 -321 -395 -399 -64 -96 -106 -201 -125 -308 -18 -104 -19
-166 -4 -272 25 -181 102 -262 259 -271 172 -10 475 108 795 309 66 41 128 78
138 82 20 7 18 9 68 -122 37 -97 95 -171 137 -171 33 0 84 55 100 107 22 75
15 139 -33 277 -25 71 -45 131 -45 132 0 2 45 56 101 121 218 254 492 631 693
951 l26 42 63 0 c150 -1 339 -56 452 -131 87 -58 145 -127 190 -224 48 -102
58 -167 59 -365 1 -206 -10 -256 -81 -400 -39 -79 -63 -110 -138 -186 -176
-177 -411 -323 -680 -424 -138 -53 -154 -60 -161 -82 -8 -25 22 -58 52 -58 36
0 358 95 470 139 356 139 598 326 728 563 149 270 153 664 9 902 -105 172
-306 313 -534 375 -80 22 -221 46 -334 56 l-71 7 -18 51 c-27 76 -84 198 -103
219 -23 25 -52 23 -57 -4 -2 -13 -9 -71 -15 -129 -6 -58 -13 -113 -16 -121 -9
-22 -22 -26 -150 -49 -149 -27 -327 -73 -465 -119 -63 -22 -116 -37 -119 -34
-3 2 1 90 7 193 20 293 54 567 76 596 7 9 103 32 281 65 288 54 602 127 688
161 61 24 97 55 97 82 0 31 -70 90 -136 116 -36 14 -91 25 -142 28 -82 6 -84
5 -172 -37 -64 -30 -147 -56 -287 -91 -109 -27 -218 -51 -242 -55 l-43 -7 7
44 c11 75 64 336 102 506 l36 163 -27 54 c-40 81 -144 175 -239 214 -89 37
-112 39 -127 11z m760 -2052 c0 -18 -119 -209 -226 -362 -164 -236 -359 -474
-376 -457 -14 14 -29 224 -31 443 l-2 202 75 32 c119 50 225 86 365 121 143
36 195 42 195 21z m-856 -473 c4 -103 14 -248 22 -323 8 -75 17 -166 21 -202
l6 -66 -99 -62 c-132 -83 -403 -217 -484 -238 -44 -12 -105 -17 -187 -18 -113
0 -124 2 -145 22 -41 41 -35 201 13 329 65 172 258 368 568 577 110 74 262
167 272 167 3 0 9 -84 13 -186z"/>
</g>
</svg>
